<?xml version="1.0" standalone="no"?>
<!DOCTYPE svg PUBLIC "-//W3C//DTD SVG 20010904//EN"
 "http://www.w3.org/TR/2001/REC-SVG-20010904/DTD/svg10.dtd">
<svg version="1.0" xmlns="http://www.w3.org/2000/svg"
 width="1696.000000pt" height="608.000000pt" viewBox="0 0 1696.000000 608.000000"
 preserveAspectRatio="xMidYMid meet">

<g transform="translate(0.000000,608.000000) scale(0.100000,-0.100000)"
fill="#000000" stroke="none">
<path d="M7430 5784 c-118 -23 -213 -76 -318 -178 -63 -60 -144 -165 -188
-241 -19 -32 -154 -306 -176 -355 -11 -25 -26 -57 -34 -72 -8 -14 -14 -35 -14
-45 0 -10 -6 -27 -14 -38 -7 -11 -16 -31 -19 -45 -3 -14 -16 -56 -30 -95 -13
-38 -34 -104 -47 -145 -12 -41 -28 -95 -36 -120 -8 -25 -14 -57 -14 -72 0 -15
-5 -39 -11 -55 -11 -28 -26 -96 -54 -248 -8 -44 -22 -116 -30 -160 -39 -193
-89 -609 -101 -822 -4 -82 -11 -126 -19 -133 -19 -16 -312 -67 -322 -56 -2 2
-11 35 -20 73 -33 149 -38 167 -75 253 -59 136 -148 255 -254 336 -47 36 -160
94 -184 94 -12 0 -31 5 -43 12 -51 27 -368 27 -438 0 -13 -6 -54 -20 -91 -31
-131 -42 -274 -136 -376 -246 -60 -65 -153 -213 -186 -295 -10 -25 -22 -54
-27 -65 -16 -36 -40 -129 -49 -190 -5 -33 -13 -80 -19 -105 -14 -62 -14 -274
1 -360 12 -70 12 -71 -15 -97 -27 -28 -95 -70 -157 -98 -96 -44 -242 -44 -329
1 -28 15 -74 51 -103 80 -94 96 -131 160 -331 574 -77 158 -141 245 -269 365
-17 15 -151 85 -164 85 -16 0 -84 34 -84 42 0 5 8 11 18 14 9 3 29 12 44 20
14 8 33 14 41 14 9 0 28 6 44 14 15 8 66 33 113 55 110 53 149 75 240 136 323
215 600 533 784 900 80 158 136 279 136 293 0 5 7 23 15 38 8 16 15 36 15 45
0 8 4 19 8 25 4 5 16 36 26 69 10 33 25 80 32 104 18 59 18 111 -3 163 -21 56
-48 85 -105 114 -40 20 -62 24 -142 24 -87 0 -101 -3 -168 -34 -72 -33 -90
-46 -138 -102 -34 -39 -106 -207 -129 -299 -4 -17 -13 -39 -18 -50 -6 -11 -19
-40 -28 -65 -42 -112 -136 -313 -175 -375 -11 -16 -25 -40 -32 -52 -54 -90
-81 -131 -154 -229 -101 -134 -265 -294 -359 -350 -88 -53 -157 -89 -181 -97
-11 -3 -50 -17 -89 -32 -58 -21 -176 -49 -245 -58 -20 -3 -19 87 3 213 9 52
21 122 27 155 6 33 15 94 20 135 10 82 31 245 56 428 9 64 19 143 23 174 4 31
9 59 11 61 3 3 31 12 64 21 85 25 121 66 137 157 21 120 -12 209 -102 268 -56
36 -107 56 -214 81 -44 11 -100 24 -125 30 -80 20 -312 40 -455 40 -146 0
-419 -27 -540 -54 -121 -26 -304 -97 -390 -149 -37 -23 -170 -124 -201 -153
-25 -24 -100 -114 -132 -159 -4 -6 -21 -39 -39 -75 -81 -167 -119 -385 -93
-535 6 -38 15 -90 19 -115 17 -101 90 -273 138 -325 57 -61 80 -70 178 -69 72
1 98 6 133 24 57 30 121 97 138 146 24 69 18 112 -31 219 -37 81 -44 106 -50
180 -18 216 53 372 216 471 31 19 63 34 71 34 8 0 18 4 23 9 19 19 172 50 295
61 141 13 324 5 340 -15 7 -8 7 -33 1 -76 -6 -35 -15 -93 -20 -129 -9 -60 -19
-132 -57 -410 -35 -260 -46 -340 -60 -415 -8 -44 -14 -94 -14 -112 0 -18 -5
-55 -11 -83 l-11 -50 -66 0 c-79 0 -168 -23 -202 -53 -64 -56 -74 -83 -75
-197 l0 -107 36 -44 c40 -48 92 -69 173 -69 24 0 48 -6 53 -12 15 -19 -8 -199
-52 -418 -39 -189 -48 -227 -60 -255 -7 -16 -16 -39 -18 -50 -11 -42 -34 -96
-45 -107 -7 -7 -12 -18 -12 -25 0 -21 -131 -148 -180 -174 -40 -21 -58 -24
-151 -23 -102 0 -108 1 -170 36 -66 37 -111 80 -164 156 -30 44 -40 60 -110
187 -88 160 -114 185 -198 185 -110 0 -201 -111 -217 -264 -8 -73 2 -201 18
-233 5 -10 17 -36 28 -58 46 -99 154 -219 264 -293 67 -45 90 -59 110 -67 8
-3 28 -13 43 -21 16 -7 35 -14 42 -14 8 0 29 -6 47 -14 152 -64 480 -64 678 0
232 75 414 236 526 464 59 121 90 197 103 260 4 19 13 45 19 57 7 12 12 32 12
44 0 12 6 45 14 73 24 86 49 230 80 456 l11 85 50 0 c72 -1 138 -36 221 -119
64 -65 154 -199 154 -231 0 -7 7 -18 15 -25 8 -7 15 -17 15 -23 0 -6 21 -54
46 -106 25 -53 52 -109 59 -126 18 -41 154 -315 168 -340 55 -95 76 -128 115
-178 138 -182 270 -269 467 -312 150 -33 357 -28 454 11 18 8 40 14 48 14 8 0
48 16 89 35 41 19 78 35 83 35 5 0 11 3 13 8 2 4 29 25 60 46 32 21 65 46 75
55 10 9 31 26 47 39 l28 22 88 -83 c80 -75 192 -147 228 -147 8 0 28 -7 45
-15 40 -18 196 -45 262 -45 110 0 286 41 374 88 109 57 142 82 242 183 125
126 208 272 275 484 19 59 19 60 59 63 22 1 84 9 138 17 54 8 118 15 142 15
l45 0 0 -107 c1 -217 40 -537 69 -566 6 -6 11 -18 11 -25 0 -24 65 -96 101
-114 19 -9 57 -21 84 -27 82 -18 207 16 253 69 19 22 82 158 82 178 0 9 6 37
14 62 8 25 22 72 31 105 9 33 21 74 27 90 6 17 16 48 22 70 7 22 18 53 24 68
7 16 12 32 12 37 0 5 6 21 14 37 8 15 22 48 31 73 34 91 169 352 228 442 83
126 205 247 273 271 67 22 100 22 131 -3 41 -32 56 -69 56 -140 0 -103 -41
-198 -114 -266 -39 -37 -140 -99 -219 -134 -30 -14 -56 -28 -58 -32 -2 -5 -9
-8 -17 -8 -7 0 -30 -17 -51 -38 -86 -84 -97 -220 -32 -432 45 -150 173 -298
314 -365 108 -51 130 -57 317 -86 78 -12 100 -11 200 5 62 10 132 25 157 33
118 40 245 118 344 211 25 23 48 42 53 42 4 0 24 -28 43 -61 42 -74 122 -162
170 -188 19 -10 69 -26 111 -36 73 -17 80 -17 145 -1 90 22 127 40 195 93 70
55 149 154 185 233 40 88 72 176 76 209 5 45 26 35 32 -16 30 -241 65 -341
150 -431 17 -18 44 -40 61 -48 42 -22 163 -54 205 -54 39 0 222 32 285 50 122
34 277 139 461 313 33 31 66 57 72 57 6 0 14 -10 18 -22 3 -13 33 -63 66 -113
57 -85 155 -183 196 -195 9 -3 40 -16 67 -29 63 -29 203 -61 269 -61 94 0 263
36 366 77 94 38 252 148 354 245 28 27 53 48 58 48 4 0 17 -21 28 -47 44 -100
57 -120 110 -173 75 -75 161 -117 282 -138 92 -15 101 -15 193 3 53 10 98 22
101 27 3 4 12 8 21 8 18 0 106 41 111 53 2 4 10 7 17 7 8 0 20 6 27 13 29 28
128 90 134 84 4 -3 12 -129 20 -279 7 -150 18 -297 23 -327 6 -29 11 -72 11
-95 1 -65 68 -394 89 -434 6 -11 11 -30 11 -41 0 -10 6 -32 14 -48 8 -15 24
-50 36 -78 13 -27 33 -64 46 -82 13 -17 24 -35 24 -38 0 -4 22 -29 49 -55 86
-84 227 -134 315 -111 24 6 54 11 65 11 12 0 50 14 85 30 144 68 253 220 314
435 48 172 56 246 55 530 0 274 -6 348 -54 685 -12 80 -27 175 -35 212 -8 37
-14 84 -14 105 -1 21 -7 56 -15 78 -9 24 -11 43 -5 49 5 5 38 2 82 -9 54 -14
112 -19 227 -20 l154 0 18 -50 c10 -28 18 -60 18 -72 3 -68 139 -288 227 -365
94 -83 233 -159 344 -188 142 -38 256 -52 380 -46 142 7 284 27 350 50 79 27
163 61 190 77 8 5 22 12 30 16 8 3 53 29 100 57 243 144 437 338 468 468 16
65 15 211 -2 252 -28 66 -92 92 -159 63 -15 -7 -82 -66 -150 -133 -105 -103
-194 -174 -325 -256 -26 -16 -70 -38 -157 -78 -190 -88 -422 -95 -583 -18 -53
25 -117 84 -131 121 -12 31 -12 31 54 42 22 4 45 10 50 15 6 4 27 11 49 14 21
4 46 11 55 16 9 4 39 16 66 25 76 27 146 58 253 114 57 30 170 122 218 178 45
52 114 155 114 169 0 3 6 20 14 37 43 100 56 163 56 283 -1 77 -6 133 -15 159
-8 22 -15 49 -15 61 0 11 -7 29 -15 40 -8 10 -15 24 -15 31 0 23 -73 118 -119
156 -53 44 -114 77 -186 101 -74 24 -304 22 -410 -4 -88 -21 -235 -79 -235
-92 0 -4 -6 -8 -14 -8 -23 0 -167 -113 -225 -176 -46 -51 -92 -113 -138 -189
-22 -35 -80 -159 -87 -185 -4 -14 -11 -34 -16 -45 -5 -11 -14 -40 -22 -65 -11
-39 -18 -47 -51 -57 -59 -20 -316 -27 -454 -14 -116 11 -124 11 -162 -9 -43
-21 -112 -101 -146 -167 -10 -21 -24 -45 -30 -53 -7 -8 -17 -40 -24 -70 -13
-57 -10 -96 24 -250 36 -167 69 -347 80 -435 4 -27 10 -72 15 -100 21 -111 43
-441 44 -625 0 -311 -42 -470 -125 -470 -47 0 -63 38 -89 210 -55 379 -67
1454 -20 1875 l11 100 62 65 c33 36 99 106 146 155 179 189 400 460 522 640
85 126 169 261 169 274 0 6 4 11 8 11 4 0 15 15 23 33 8 17 31 64 51 102 20
39 46 93 58 120 13 28 29 62 36 77 8 14 14 34 14 45 0 10 7 27 15 37 8 11 15
26 15 34 0 8 7 28 15 45 14 32 24 68 45 162 6 28 17 73 25 100 7 28 19 124 26
215 11 145 10 181 -5 295 -40 308 -157 466 -375 505 -121 22 -294 -30 -421
-126 -97 -73 -253 -255 -303 -354 -4 -8 -25 -46 -47 -85 -42 -76 -134 -259
-169 -340 -13 -27 -29 -62 -37 -77 -8 -14 -14 -35 -14 -45 0 -10 -6 -27 -14
-38 -7 -11 -16 -31 -19 -45 -5 -25 -30 -96 -46 -135 -8 -20 -45 -141 -61 -200
-4 -16 -17 -61 -28 -100 -11 -38 -27 -104 -36 -145 -10 -41 -23 -97 -31 -125
-14 -51 -32 -135 -59 -280 -8 -44 -20 -107 -27 -140 -6 -33 -13 -73 -15 -90
-3 -16 -13 -82 -24 -145 -41 -251 -80 -606 -80 -730 0 -30 -3 -80 -7 -110 -6
-52 -10 -58 -101 -152 -146 -151 -234 -202 -320 -186 -41 7 -91 48 -92 74 0 7
-7 25 -15 40 -20 39 -20 232 0 344 29 159 36 195 46 255 5 33 16 87 23 120 28
126 67 318 91 445 30 166 15 229 -64 270 -34 17 -59 20 -154 20 -208 0 -254
-41 -326 -290 -41 -140 -50 -175 -71 -275 -12 -55 -25 -116 -30 -135 -5 -19
-12 -66 -16 -105 -3 -38 -11 -81 -16 -95 -5 -13 -13 -71 -18 -127 -5 -56 -15
-114 -22 -127 -14 -27 -163 -181 -265 -276 -120 -110 -287 -167 -415 -141
-128 25 -196 104 -236 271 -13 53 -4 71 104 220 35 49 64 94 64 99 0 5 3 11 8
13 10 4 148 211 182 273 14 25 28 48 63 103 15 24 32 53 38 65 5 12 31 63 59
112 66 120 182 357 246 503 8 17 20 47 28 65 8 17 25 57 36 87 12 30 26 64 31
75 14 32 40 107 48 140 4 17 13 40 19 52 7 12 12 31 12 42 0 11 6 35 14 53 18
43 66 255 97 428 15 87 24 482 11 545 -17 87 -34 149 -48 178 -8 16 -14 33
-14 39 0 12 -39 94 -55 117 -31 45 -129 132 -167 150 -78 35 -165 45 -255 28
-188 -36 -344 -148 -468 -337 -66 -100 -68 -103 -115 -195 -23 -44 -45 -87
-50 -95 -15 -26 -57 -122 -84 -195 -15 -38 -34 -82 -42 -97 -8 -14 -14 -33
-14 -42 0 -8 -6 -30 -14 -48 -8 -18 -24 -67 -36 -108 -36 -120 -52 -173 -65
-210 -7 -19 -20 -71 -30 -115 -9 -44 -23 -102 -30 -130 -31 -116 -89 -463
-115 -685 -5 -41 -14 -118 -21 -170 -8 -61 -13 -236 -13 -485 l-1 -390 -156
-157 c-86 -87 -163 -158 -172 -158 -8 0 -20 -6 -26 -13 -18 -22 -113 -40 -147
-27 -49 18 -82 64 -90 127 -8 69 25 318 64 483 6 25 18 81 27 125 9 44 23 105
30 135 7 30 23 98 34 150 73 339 84 435 57 489 -27 51 -55 61 -167 61 -133 0
-187 -18 -242 -81 -42 -49 -52 -71 -93 -209 -15 -47 -32 -101 -39 -120 -7 -19
-18 -51 -25 -70 -6 -19 -16 -51 -20 -70 -9 -37 -25 -86 -45 -135 -7 -17 -16
-45 -19 -62 -4 -18 -12 -35 -17 -38 -5 -4 -9 -14 -9 -24 0 -59 -192 -427 -266
-510 -12 -14 -33 -38 -46 -52 -28 -32 -78 -59 -111 -59 -43 0 -74 41 -83 106
-17 138 40 511 135 889 11 44 25 100 31 125 6 25 16 65 22 90 29 118 21 164
-38 200 -26 17 -49 20 -145 20 -180 0 -253 -37 -318 -161 -17 -33 -31 -63 -31
-68 0 -6 -5 -22 -12 -38 -25 -60 -86 -281 -110 -398 -5 -27 -16 -78 -24 -112
-8 -34 -14 -81 -14 -105 0 -24 -7 -88 -15 -143 -8 -55 -15 -129 -15 -164 l0
-63 -110 -109 c-147 -145 -207 -183 -327 -208 -159 -34 -349 70 -374 202 -9
51 1 65 75 103 28 15 53 29 56 33 3 3 31 24 62 45 167 113 298 329 327 539 31
223 -12 388 -134 513 -99 101 -171 128 -340 128 -99 0 -130 -4 -175 -21 -76
-29 -120 -50 -155 -73 -16 -11 -37 -23 -45 -27 -36 -16 -131 -97 -200 -171
-82 -86 -80 -84 -130 -157 -19 -27 -38 -52 -41 -55 -3 -3 -9 -12 -12 -20 -4
-8 -16 -28 -27 -45 -11 -16 -22 -37 -26 -45 -3 -8 -9 -22 -14 -30 -14 -24 -88
-173 -94 -190 -3 -8 -10 -22 -15 -30 -18 -30 -51 -107 -51 -119 0 -6 -4 -11
-9 -11 -15 0 -17 49 -11 240 6 204 1 188 87 286 28 32 61 70 73 84 12 14 47
54 78 89 31 35 68 78 82 94 14 17 39 47 55 67 17 19 51 62 75 95 43 58 52 69
105 130 14 17 33 44 42 60 9 17 19 32 22 35 10 8 127 173 134 190 4 8 16 29
27 45 11 17 24 39 30 50 6 11 20 36 31 55 30 50 115 215 127 248 6 15 20 52
32 82 45 118 80 245 104 386 18 103 21 347 5 409 -6 22 -14 58 -19 80 -5 22
-16 54 -24 70 -9 17 -16 33 -16 37 0 20 -69 118 -112 160 -58 57 -113 87 -193
104 -73 16 -90 16 -185 -2z m71 -465 c16 -17 31 -41 33 -53 2 -11 9 -45 15
-74 19 -91 7 -292 -24 -407 -14 -53 -29 -115 -46 -180 -6 -22 -14 -44 -20 -49
-5 -6 -9 -17 -9 -26 0 -18 -141 -300 -188 -376 -18 -28 -32 -54 -32 -57 0 -18
-270 -386 -284 -387 -8 0 -6 31 13 170 28 206 42 293 47 301 2 5 12 46 21 91
26 139 41 210 58 283 9 39 23 95 30 126 7 30 17 71 23 90 7 19 21 66 33 104
12 39 28 84 35 102 8 17 14 38 14 46 0 9 4 18 9 22 5 3 13 19 16 36 12 52 83
187 121 229 47 52 92 55 135 9z m4382 7 c51 -54 67 -130 70 -312 1 -132 -10
-267 -35 -399 -6 -33 -14 -78 -18 -100 -4 -22 -18 -76 -30 -120 -12 -44 -26
-98 -31 -120 -5 -22 -16 -54 -24 -72 -8 -17 -15 -38 -15 -46 0 -8 -7 -28 -15
-43 -8 -16 -15 -37 -15 -46 0 -9 -6 -29 -14 -45 -14 -30 -29 -64 -66 -153 -31
-75 -45 -109 -63 -150 -9 -19 -18 -42 -21 -50 -3 -8 -10 -22 -15 -30 -5 -8
-33 -64 -62 -125 -45 -93 -156 -295 -189 -345 -6 -8 -15 -27 -21 -42 -9 -22
-36 -45 -44 -36 -6 7 16 358 30 478 36 307 66 515 86 609 5 23 17 80 25 125
34 181 45 225 109 451 64 222 117 373 155 435 6 8 16 29 24 46 8 18 31 50 51
73 45 50 92 56 128 17z m2750 5 c13 -5 35 -27 48 -48 22 -37 23 -45 23 -228 0
-144 -5 -209 -18 -270 -25 -113 -45 -195 -57 -230 -6 -16 -15 -48 -20 -70 -6
-21 -14 -44 -18 -50 -4 -5 -16 -32 -26 -60 -28 -80 -100 -235 -135 -295 -5 -8
-39 -67 -75 -130 -90 -154 -312 -455 -346 -468 -17 -7 -20 26 -9 79 5 30 17
86 25 124 7 39 20 104 29 145 8 41 24 118 36 170 12 52 25 115 29 140 4 25 12
61 18 80 6 19 19 71 28 115 30 141 88 346 142 500 13 39 29 84 34 102 5 18 14
35 19 38 6 4 10 14 10 23 0 23 87 197 129 258 34 50 73 83 98 84 6 0 23 -4 36
-9z m1128 -2073 c51 -16 94 -68 104 -127 9 -55 -3 -167 -19 -184 -8 -7 -17
-23 -20 -35 -12 -35 -105 -124 -171 -162 -80 -47 -184 -91 -283 -121 -56 -16
-64 -5 -56 76 19 201 85 364 189 471 83 85 163 110 256 82z m-10556 -92 c-10
-115 24 -321 62 -367 7 -8 13 -21 13 -27 0 -27 56 -101 127 -168 l75 -72 -10
-43 c-32 -135 -67 -207 -143 -293 -83 -94 -238 -130 -335 -79 -45 24 -121 96
-135 128 -5 11 -13 27 -18 35 -93 155 -81 523 24 735 61 122 195 220 309 224
l38 1 -7 -74z"/>
<path d="M12715 4651 c-130 -31 -229 -104 -273 -201 -35 -76 -36 -202 -3 -273
27 -60 84 -117 142 -144 71 -34 202 -48 295 -33 234 37 354 199 314 420 -23
126 -108 202 -264 234 -94 19 -120 19 -211 -3z"/>
</g>
</svg>
