<?xml version="1.0" encoding="UTF-8"?>
<!DOCTYPE svg PUBLIC "-//W3C//DTD SVG 1.1//EN" "http://www.w3.org/Graphics/SVG/1.1/DTD/svg11.dtd">
<svg xmlns="http://www.w3.org/2000/svg" version="1.1" width="1450px" height="600px" style="shape-rendering:geometricPrecision; text-rendering:geometricPrecision; image-rendering:optimizeQuality; fill-rule:evenodd; clip-rule:evenodd" xmlns:xlink="http://www.w3.org/1999/xlink">
<g><path style="opacity:0.969" fill="#abd053" d="M 215.5,91.5 C 229.468,92.0682 239.968,98.4015 247,110.5C 252.253,121.092 256.42,132.092 259.5,143.5C 270.088,132.403 282.421,123.903 296.5,118C 318.297,112.635 331.464,120.801 336,142.5C 337.602,156.855 336.102,170.855 331.5,184.5C 332,184.833 332.5,185.167 333,185.5C 350.344,179.531 367.844,179.031 385.5,184C 399.885,193.145 404.385,205.978 399,222.5C 393.043,235.966 384.543,247.633 373.5,257.5C 387.273,260.586 399.94,266.086 411.5,274C 430.163,290.98 430.163,307.98 411.5,325C 399.795,332.516 387.129,337.849 373.5,341C 389.302,353.605 398.302,369.939 400.5,390C 399.061,405.775 390.395,414.775 374.5,417C 360.278,418.617 346.445,417.117 333,412.5C 333.727,419.483 334.727,426.483 336,433.5C 339.224,449.253 336.057,463.42 326.5,476C 318.128,482.574 308.795,484.241 298.5,481C 283.561,475.276 270.727,466.443 260,454.5C 256.643,469.548 250.309,483.215 241,495.5C 224.981,510.47 209.314,510.136 194,494.5C 185.828,482.155 179.828,468.822 176,454.5C 165.8,466.675 153.3,475.509 138.5,481C 117.509,485.59 104.675,477.424 100,456.5C 99.3333,449.167 99.3333,441.833 100,434.5C 101.445,427.174 102.445,419.841 103,412.5C 85.617,419.053 68.117,419.553 50.5,414C 37.4058,406.97 32.5725,396.137 36,381.5C 40.9983,365.339 49.8316,351.672 62.5,340.5C 45.5579,337.279 30.7246,329.945 18,318.5C 6.45807,301.792 8.62474,286.958 24.5,274C 36.3915,266.592 49.0582,260.925 62.5,257C 47.3104,244.463 37.9771,228.463 34.5,209C 36.6572,191.842 46.3239,182.509 63.5,181C 77.492,179.475 90.992,181.309 104,186.5C 102.554,178.929 101.221,171.262 100,163.5C 98.5434,151.819 99.8767,140.486 104,129.5C 112.258,117.624 123.425,113.457 137.5,117C 152.511,122.84 165.511,131.673 176.5,143.5C 179.43,135.209 182.264,126.876 185,118.5C 191.064,104.588 201.231,95.5878 215.5,91.5 Z"/></g>
<g><path style="opacity:1" fill="#2e3035" d="M 212.5,102.5 C 224.206,101.344 233.706,105.344 241,114.5C 248.994,124.829 253.994,136.495 256,149.5C 256.388,150.428 257.055,151.095 258,151.5C 263.488,146.68 268.988,141.846 274.5,137C 280.391,132.887 286.724,129.554 293.5,127C 313.671,122.658 325.838,130.491 330,150.5C 331.045,164.445 329.545,178.111 325.5,191.5C 342.351,186.812 359.351,186.312 376.5,190C 388.443,196.722 393.276,206.888 391,220.5C 385.935,235.734 377.435,248.734 365.5,259.5C 373.084,262.418 380.75,265.252 388.5,268C 400.603,272.437 409.103,280.604 414,292.5C 415.919,305.74 411.419,316.24 400.5,324C 389.79,330.959 378.123,335.459 365.5,337.5C 365.351,338.552 365.517,339.552 366,340.5C 380.603,351.876 389.103,366.709 391.5,385C 390.929,399.24 383.596,407.573 369.5,410C 361.548,411.442 353.548,411.775 345.5,411C 339.096,409.52 332.763,408.187 326.5,407C 326.043,407.414 325.709,407.914 325.5,408.5C 331.023,423.576 331.856,438.909 328,454.5C 323.058,468.438 313.225,474.605 298.5,473C 292.264,470.883 286.264,468.216 280.5,465C 272.4,459.403 264.733,453.236 257.5,446.5C 254.285,457.965 249.785,468.965 244,479.5C 235.407,493.381 223.24,498.215 207.5,494C 197.045,487.874 189.878,479.041 186,467.5C 183.646,460.398 181.146,453.398 178.5,446.5C 171.05,453.719 163.05,460.219 154.5,466C 145.828,471.168 136.494,473.501 126.5,473C 117,470.167 110.833,464 108,454.5C 106.352,448.444 105.519,442.278 105.5,436C 106.255,426.065 107.588,416.232 109.5,406.5C 96.1642,410.833 82.4975,412.333 68.5,411C 46.4153,404.76 39.582,390.927 48,369.5C 53.1479,358.218 60.4812,348.551 70,340.5C 70.4828,339.552 70.6495,338.552 70.5,337.5C 53.4643,335.066 38.9643,327.732 27,315.5C 18.2101,301.142 20.0434,288.309 32.5,277C 44.111,268.959 56.7776,263.126 70.5,259.5C 60.6911,249.873 52.8578,238.873 47,226.5C 40.5756,204.849 48.4089,191.682 70.5,187C 83.9629,185.543 96.9629,187.376 109.5,192.5C 109.833,191.667 110.167,190.833 110.5,190C 106.914,178.074 105.414,165.907 106,153.5C 108.641,131.524 120.808,122.69 142.5,127C 156.26,132.595 168.26,140.762 178.5,151.5C 181.97,140.932 186.137,130.599 191,120.5C 196.577,112.408 203.743,106.408 212.5,102.5 Z"/></g>
<g><path style="opacity:1" fill="#acd057" d="M 213.5,112.5 C 222.805,111.404 229.972,114.738 235,122.5C 238.044,127.623 240.711,132.956 243,138.5C 244.515,146.56 246.348,154.56 248.5,162.5C 242.604,173.956 236.438,185.29 230,196.5C 226.064,206.912 223.064,217.579 221,228.5C 213.57,229.989 206.07,231.322 198.5,232.5C 196.68,232.351 195.18,231.684 194,230.5C 191.041,221.996 188.707,213.329 187,204.5C 186.155,188.47 186.488,172.47 188,156.5C 190.541,141.586 196.708,128.42 206.5,117C 208.898,115.476 211.231,113.976 213.5,112.5 Z"/></g>
<g><path style="opacity:1" fill="#fefefd" d="M 213.5,122.5 C 220.663,121.608 226.497,123.941 231,129.5C 233.921,134.341 236.588,139.341 239,144.5C 239.802,151.014 241.302,157.347 243.5,163.5C 238.604,172.957 233.437,182.29 228,191.5C 224.518,200.611 221.851,209.945 220,219.5C 213.876,220.461 207.709,221.461 201.5,222.5C 200.228,222.43 199.062,222.097 198,221.5C 192.937,208.835 190.77,195.669 191.5,182C 189.991,162.867 194.491,145.367 205,129.5C 207.628,126.79 210.461,124.456 213.5,122.5 Z"/></g>
<g><path style="opacity:1" fill="#abd056" d="M 125.5,135.5 C 134.139,134.547 142.139,136.38 149.5,141C 159.64,147.808 168.473,155.975 176,165.5C 174.358,189.834 177.524,213.501 185.5,236.5C 185.392,237.442 185.059,238.275 184.5,239C 177.74,243.258 171.407,248.091 165.5,253.5C 137.944,231.411 121.444,202.744 116,167.5C 114.664,158.843 115.664,150.51 119,142.5C 120.694,139.642 122.861,137.309 125.5,135.5 Z"/></g>
<g><path style="opacity:1" fill="#abcf57" d="M 297.5,135.5 C 310.565,133.725 318.065,139.392 320,152.5C 321.266,167.806 318.766,182.473 312.5,196.5C 291.063,207.048 272.396,221.215 256.5,239C 247.865,237.364 239.532,234.531 231.5,230.5C 236.518,199.633 250.185,173.133 272.5,151C 279.957,144.279 288.291,139.112 297.5,135.5 Z"/></g>
<g><path style="opacity:1" fill="#fefefd" d="M 291.5,144.5 C 302.111,141.551 308.945,145.217 312,155.5C 313.356,169.345 311.356,182.678 306,195.5C 288.163,203.687 272.663,215.187 259.5,230C 257.833,230.667 256.167,230.667 254.5,230C 249.58,227.804 244.58,225.804 239.5,224C 238.892,222.769 238.559,221.436 238.5,220C 244.299,193.391 257.299,171.058 277.5,153C 282.064,149.89 286.731,147.056 291.5,144.5 Z"/></g>
<g><path style="opacity:1" fill="#fefefd" d="M 130.5,144.5 C 141.558,145.361 151.225,149.527 159.5,157C 163.702,160.867 167.535,165.033 171,169.5C 171.333,179.5 171.667,189.5 172,199.5C 173.986,209.626 176.486,219.626 179.5,229.5C 174.205,233.513 169.205,238.013 164.5,243C 163.5,243.667 162.5,243.667 161.5,243C 137.756,222.688 124.09,196.854 120.5,165.5C 120.41,156.724 123.743,149.724 130.5,144.5 Z"/></g>
<g><path style="opacity:0.981" fill="#aed453" d="M 793.5,161.5 C 801.737,160.028 806.571,163.361 808,171.5C 807.49,204.825 807.49,238.158 808,271.5C 819.227,245.925 838.727,234.091 866.5,236C 880.519,240.02 889.019,249.187 892,263.5C 894.811,282.039 888.311,296.206 872.5,306C 866.612,308.795 860.612,311.295 854.5,313.5C 861.191,329.061 869.524,343.561 879.5,357C 880.729,357.781 882.062,358.281 883.5,358.5C 888.208,356.751 892.875,355.085 897.5,353.5C 905.335,354.84 906.502,358.506 901,364.5C 889.338,376.299 875.838,379.132 860.5,373C 858.333,370.833 856.167,368.667 854,366.5C 844.413,349.66 835.079,332.66 826,315.5C 823.667,311.833 820.667,308.833 817,306.5C 816.503,303.854 816.336,301.187 816.5,298.5C 823.17,298.712 829.836,299.046 836.5,299.5C 854.376,299.924 864.71,291.424 867.5,274C 866.4,258.908 858.4,252.908 843.5,256C 833.773,258.448 826.273,263.948 821,272.5C 807.572,298.259 804.238,325.259 811,353.5C 812.473,357.779 814.473,361.779 817,365.5C 817.667,367.5 817.667,369.5 817,371.5C 800.907,372.658 784.741,372.824 768.5,372C 765.657,368.381 765.99,365.048 769.5,362C 777.009,361.157 781.176,356.991 782,349.5C 782.667,297.5 782.667,245.5 782,193.5C 781.837,191.324 781.004,189.491 779.5,188C 774.533,186.935 769.533,185.935 764.5,185C 763.707,183.915 763.04,182.748 762.5,181.5C 764.267,178.23 766.6,175.397 769.5,173C 777.195,168.317 785.195,164.484 793.5,161.5 Z"/></g>
<g><path style="opacity:0.999" fill="#fefffe" d="M 1094.5,162.5 C 1097.52,162.335 1100.52,162.502 1103.5,163C 1105.67,163.833 1107.17,165.333 1108,167.5C 1108.33,228.833 1108.67,290.167 1109,351.5C 1110.58,356.709 1114.08,358.542 1119.5,357C 1122.62,355.686 1125.79,354.52 1129,353.5C 1133.21,354.528 1134.54,357.195 1133,361.5C 1122.99,373.268 1110.49,377.768 1095.5,375C 1089.44,372.045 1085.94,367.212 1085,360.5C 1083.95,302.838 1083.29,245.171 1083,187.5C 1077.5,186.87 1072,186.036 1066.5,185C 1065.43,183.687 1064.76,182.187 1064.5,180.5C 1067,175.836 1070.66,172.336 1075.5,170C 1081.6,166.585 1087.93,164.085 1094.5,162.5 Z"/></g>
<g><path style="opacity:0.999" fill="#fefefe" d="M 1292.5,162.5 C 1309.59,160.387 1324.09,165.387 1336,177.5C 1343.05,190.735 1341.55,202.901 1331.5,214C 1325.11,218.122 1318.11,219.789 1310.5,219C 1309.64,218.311 1308.98,217.478 1308.5,216.5C 1312.14,209.416 1314.47,201.916 1315.5,194C 1312.47,177.638 1303.14,172.304 1287.5,178C 1282.04,183.41 1278.54,189.91 1277,197.5C 1274.61,211.445 1274.11,225.445 1275.5,239.5C 1287.5,239.333 1299.5,239.5 1311.5,240C 1312.54,245.845 1311.21,251.178 1307.5,256C 1296.42,255.867 1285.58,256.701 1275,258.5C 1274.67,303.833 1274.33,349.167 1274,394.5C 1266.19,428.961 1245.02,442.127 1210.5,434C 1194.26,425.694 1189.76,413.194 1197,396.5C 1202.54,388.98 1210.04,384.98 1219.5,384.5C 1221.89,384.912 1223.89,385.912 1225.5,387.5C 1221.32,393.365 1218.65,399.865 1217.5,407C 1218.95,421.813 1226.62,426.813 1240.5,422C 1246.31,417.241 1249.48,411.074 1250,403.5C 1250.67,354.833 1250.67,306.167 1250,257.5C 1242.56,256.849 1235.06,256.182 1227.5,255.5C 1225.72,250.228 1227.38,246.395 1232.5,244C 1238.33,242.368 1244.17,240.868 1250,239.5C 1249.52,219.362 1253.85,200.362 1263,182.5C 1270.13,171.696 1279.96,165.03 1292.5,162.5 Z"/></g>
<g><path style="opacity:0.985" fill="#aed453" d="M 439.5,179.5 C 460.167,179.5 480.833,179.5 501.5,179.5C 501.579,182.271 501.079,184.937 500,187.5C 492.588,198.737 488.588,211.07 488,224.5C 487.333,265.167 487.333,305.833 488,346.5C 488.229,349.458 489.396,351.958 491.5,354C 496.511,358.005 502.178,360.672 508.5,362C 511.543,366.131 510.543,369.131 505.5,371C 500.614,372.481 495.614,373.314 490.5,373.5C 475.811,373.188 461.144,372.688 446.5,372C 441.629,372.246 438.629,370.079 437.5,365.5C 438.04,364.252 438.707,363.085 439.5,362C 446.659,360.173 452.826,356.673 458,351.5C 458.822,349.212 459.489,346.878 460,344.5C 460.667,299.833 460.667,255.167 460,210.5C 459.812,206.123 458.479,202.123 456,198.5C 450.501,194.08 444.501,190.414 438,187.5C 437.109,184.502 437.609,181.836 439.5,179.5 Z"/></g>
<g><path style="opacity:0.985" fill="#aed453" d="M 544.5,179.5 C 561.17,179.333 577.837,179.5 594.5,180C 597.978,182.706 598.311,185.706 595.5,189C 586.071,191.794 578.238,196.961 572,204.5C 556.485,227.344 540.985,250.177 525.5,273C 532.004,278.841 537.837,285.341 543,292.5C 554.92,313.339 566.587,334.339 578,355.5C 579.214,357.049 580.714,358.215 582.5,359C 588.081,358.925 593.581,359.092 599,359.5C 599.777,362.429 599.61,365.263 598.5,368C 579.521,380.808 562.355,378.642 547,361.5C 543.084,356.004 539.418,350.337 536,344.5C 526.921,326.675 517.588,309.008 508,291.5C 504.288,286.121 499.621,281.787 494,278.5C 493.333,276.5 493.333,274.5 494,272.5C 498.16,270.204 502.494,268.204 507,266.5C 517.752,249.994 528.752,233.661 540,217.5C 543.155,212.362 545.321,206.862 546.5,201C 545.37,195.28 544.037,189.613 542.5,184C 542.759,182.213 543.425,180.713 544.5,179.5 Z"/></g>
<g><path style="opacity:0.998" fill="#fefffe" d="M 1174.5,179.5 C 1185.67,178.153 1193.17,182.82 1197,193.5C 1196.85,203.337 1192.02,209.837 1182.5,213C 1178.95,213.598 1175.61,212.931 1172.5,211C 1159.35,199.848 1160.01,189.348 1174.5,179.5 Z"/></g>
<g><path style="opacity:1" fill="#acd056" d="M 345.5,196.5 C 385.267,195.703 392.767,211.036 368,242.5C 363.093,248.078 357.593,252.911 351.5,257C 327.821,255.256 304.821,258.256 282.5,266C 281.167,266.667 279.833,266.667 278.5,266C 274.103,259.094 269.103,252.594 263.5,246.5C 284.996,220.352 312.33,203.685 345.5,196.5 Z"/></g>
<g><path style="opacity:1" fill="#abcf56" d="M 69.5,196.5 C 83.9889,195.526 97.9889,197.693 111.5,203C 114.102,203.883 116.269,205.383 118,207.5C 126.836,229.172 140.502,247.172 159,261.5C 159.667,262.5 159.667,263.5 159,264.5C 155.244,271.446 152.077,278.613 149.5,286C 118.404,281.035 91.9042,267.202 70,244.5C 63.7815,237.277 58.7815,229.277 55,220.5C 53.8279,214.508 54.4946,208.841 57,203.5C 61.0186,200.745 65.1853,198.411 69.5,196.5 Z"/></g>
<g><path style="opacity:1" fill="#fefefd" d="M 339.5,202.5 C 345.842,202.334 352.175,202.5 358.5,203C 370.902,205.968 374.735,213.468 370,225.5C 364.297,236.533 356.464,245.699 346.5,253C 335.167,253.333 323.833,253.667 312.5,254C 303.378,255.827 294.378,257.827 285.5,260C 282.047,254.879 278.214,250.046 274,245.5C 273.333,244.5 273.333,243.5 274,242.5C 291.766,222.373 313.6,209.04 339.5,202.5 Z"/></g>
<g><path style="opacity:1" fill="#fefefd" d="M 73.5,204.5 C 88.4718,202.473 102.472,205.14 115.5,212.5C 123.763,230.755 135.43,246.421 150.5,259.5C 147.148,265.395 144.481,271.562 142.5,278C 114.632,274.315 91.4658,261.815 73,240.5C 67.4726,233.945 63.9726,226.445 62.5,218C 62.3291,214.871 63.1624,212.037 65,209.5C 67.9788,207.933 70.8121,206.266 73.5,204.5 Z"/></g>
<g><path style="opacity:0.984" fill="#aed454" d="M 664.5,235.5 C 690.299,231.817 711.799,239.484 729,258.5C 740.213,276.556 744.546,296.223 742,317.5C 735.016,358.803 710.516,378.303 668.5,376C 634.795,370.96 615.961,351.46 612,317.5C 609.004,294.793 614.004,274.126 627,255.5C 637.518,244.993 650.018,238.326 664.5,235.5 Z M 671.5,250.5 C 683.352,248.948 693.185,252.615 701,261.5C 713.531,283.22 716.531,306.22 710,330.5C 705.415,348.593 693.915,358.593 675.5,360.5C 658.18,357.685 647.347,347.685 643,330.5C 639.667,314.833 639.667,299.167 643,283.5C 646.501,267.078 656.001,256.078 671.5,250.5 Z"/></g>
<g><path style="opacity:0.983" fill="#aed454" d="M 944.5,235.5 C 948.514,235.334 952.514,235.501 956.5,236C 958.667,236.833 960.167,238.333 961,240.5C 962.255,272.144 962.921,303.811 963,335.5C 965.284,349.789 973.618,356.789 988,356.5C 1002.1,355.41 1012.1,348.41 1018,335.5C 1025.42,312.471 1026.42,289.138 1021,265.5C 1018.81,258.121 1015.81,251.121 1012,244.5C 1011.46,242.433 1011.96,240.599 1013.5,239C 1023.16,237.751 1032.82,236.585 1042.5,235.5C 1044.1,235.551 1045.6,235.884 1047,236.5C 1047.33,273.167 1047.67,309.833 1048,346.5C 1048.41,349.232 1049.08,351.899 1050,354.5C 1050.74,355.574 1051.74,356.241 1053,356.5C 1058.38,354.477 1063.88,353.31 1069.5,353C 1073.35,357.186 1073.02,361.186 1068.5,365C 1059.7,373.043 1049.37,376.71 1037.5,376C 1033.32,374.992 1029.82,372.825 1027,369.5C 1024.41,364.465 1022.74,359.132 1022,353.5C 1007,373.834 987.17,380.667 962.5,374C 945.942,367.078 937.108,354.578 936,336.5C 936.197,311.503 936.197,286.503 936,261.5C 935.5,261 935,260.5 934.5,260C 929.453,259.662 924.453,258.995 919.5,258C 916.657,254.381 916.99,251.048 920.5,248C 928.152,243.009 936.152,238.842 944.5,235.5 Z"/></g>
<g><path style="opacity:0.999" fill="#fefefe" d="M 1178.5,235.5 C 1182.27,235.263 1185.94,235.763 1189.5,237C 1190.72,238.648 1191.55,240.481 1192,242.5C 1192.33,279.5 1192.67,316.5 1193,353.5C 1194.69,355.919 1197.02,356.919 1200,356.5C 1204.38,355.9 1208.54,354.566 1212.5,352.5C 1217.05,354.258 1218.22,357.258 1216,361.5C 1205.23,373.985 1192.07,377.819 1176.5,373C 1170.83,368.168 1168,362.001 1168,354.5C 1167.67,323.167 1167.33,291.833 1167,260.5C 1161.54,259.728 1156.04,258.895 1150.5,258C 1148.56,255.847 1148.06,253.347 1149,250.5C 1157.75,243.208 1167.58,238.208 1178.5,235.5 Z"/></g>
<g><path style="opacity:0.999" fill="#fefefe" d="M 1379.5,235.5 C 1395.36,233.504 1410.02,236.67 1423.5,245C 1436.1,256.232 1440.27,270.066 1436,286.5C 1426.51,310.605 1408.68,321.772 1382.5,320C 1373.5,319.334 1365.33,316.501 1358,311.5C 1357.5,308.183 1357.33,304.85 1357.5,301.5C 1364.32,302.578 1371.15,303.578 1378,304.5C 1394.75,304.3 1405.75,296.3 1411,280.5C 1412.16,258.99 1401.99,248.823 1380.5,250C 1371.82,252.255 1364.98,257.088 1360,264.5C 1353.52,277.71 1350.35,291.71 1350.5,306.5C 1352.66,351.905 1374.99,366.738 1417.5,351C 1422.1,347.382 1426.94,344.215 1432,341.5C 1438.6,344.546 1439.77,349.046 1435.5,355C 1411.24,377.377 1383.9,382.044 1353.5,369C 1334.72,356.291 1324.55,338.457 1323,315.5C 1320.36,289.754 1328.19,267.921 1346.5,250C 1356.42,242.534 1367.42,237.7 1379.5,235.5 Z"/></g>
<g><path style="opacity:1" fill="#add353" d="M 211.5,239.5 C 244.272,239.115 265.772,254.448 276,285.5C 280.722,321.249 266.222,345.082 232.5,357C 203.933,362.044 181.766,352.544 166,328.5C 154.167,304.293 156.5,281.626 173,260.5C 183.707,249.4 196.54,242.4 211.5,239.5 Z"/></g>
<g><path style="opacity:1" fill="#abcf56" d="M 313.5,267.5 C 337.19,265.223 360.19,268.056 382.5,276C 389.099,279.548 395.265,283.714 401,288.5C 406.234,297.252 405.401,305.419 398.5,313C 384.521,323.326 368.855,328.659 351.5,329C 332.194,315.182 310.861,306.015 287.5,301.5C 286.524,292.823 285.69,284.157 285,275.5C 294.511,272.583 304.011,269.916 313.5,267.5 Z"/></g>
<g><path style="opacity:1" fill="#abcf56" d="M 77.5,268.5 C 80.3198,268.248 82.9865,268.748 85.5,270C 99.4701,280.318 114.803,287.985 131.5,293C 136.892,293.681 142.225,294.681 147.5,296C 149.097,304.15 150.763,312.316 152.5,320.5C 152.167,321.167 151.833,321.833 151.5,322.5C 123.356,332.776 94.6894,334.276 65.5,327C 56.4959,324.331 48.1626,320.331 40.5,315C 28.3174,303.763 28.6508,292.763 41.5,282C 52.9122,275.589 64.9122,271.089 77.5,268.5 Z"/></g>
<g><path style="opacity:1" fill="#fefefd" d="M 318.5,272.5 C 338.42,270.879 357.753,273.379 376.5,280C 383.877,283.087 389.71,287.92 394,294.5C 395.537,302.265 393.037,308.432 386.5,313C 375.374,319.778 363.374,323.444 350.5,324C 334.5,312.22 316.666,304.72 297,301.5C 296.44,294.105 295.773,286.771 295,279.5C 302.802,276.762 310.636,274.428 318.5,272.5 Z"/></g>
<g><path style="opacity:1" fill="#fefefd" d="M 74.5,274.5 C 78.5138,274.334 82.5138,274.501 86.5,275C 102.156,286.945 119.822,294.112 139.5,296.5C 139.635,303.978 140.468,311.311 142,318.5C 111.657,330.113 81.8232,328.947 52.5,315C 39.4547,306.863 38.1214,297.196 48.5,286C 56.8043,281.076 65.471,277.243 74.5,274.5 Z"/></g>
<g><path style="opacity:1" fill="#abcf56" d="M 286.5,312.5 C 321.025,318.006 349.525,334.006 372,360.5C 377.421,368.004 380.588,376.337 381.5,385.5C 380.938,394.235 376.271,399.401 367.5,401C 358.84,402.956 350.173,402.956 341.5,401C 334.809,398.651 328.143,396.317 321.5,394C 314.625,381.744 307.125,369.911 299,358.5C 291.989,350.323 284.489,342.656 276.5,335.5C 281.013,328.277 284.346,320.61 286.5,312.5 Z"/></g>
<g><path style="opacity:1" fill="#fefefd" d="M 292.5,320.5 C 321.788,324.56 345.954,337.894 365,360.5C 369.328,366.318 371.828,372.818 372.5,380C 372.592,386.914 369.259,391.247 362.5,393C 348.561,396.122 335.227,394.455 322.5,388C 316.972,377.779 310.805,367.945 304,358.5C 298.667,351.833 292.667,345.833 286,340.5C 288.238,333.952 290.404,327.285 292.5,320.5 Z"/></g>
<g><path style="opacity:1" fill="#abcf56" d="M 153.5,331.5 C 155.39,331.297 156.89,331.963 158,333.5C 162.644,339.645 167.477,345.645 172.5,351.5C 164.598,363.236 154.598,372.736 142.5,380C 128.152,388.839 112.818,395.505 96.5,400C 85.0464,402.327 73.7131,401.994 62.5,399C 54.8859,393.792 52.3859,386.626 55,377.5C 61.5143,362.652 71.3477,350.486 84.5,341C 99.8529,340.737 115.186,340.07 130.5,339C 138.429,336.943 146.096,334.443 153.5,331.5 Z"/></g>
<g><path style="opacity:1" fill="#fefefd" d="M 145.5,337.5 C 146.873,337.343 148.207,337.51 149.5,338C 154.073,343.15 158.406,348.483 162.5,354C 150.693,369.462 135.693,380.795 117.5,388C 103.867,394.659 89.5335,396.992 74.5,395C 64.5751,390.909 61.4084,383.742 65,373.5C 70.3328,363.168 77.4994,354.335 86.5,347C 101.12,345.787 115.787,344.454 130.5,343C 135.703,341.436 140.703,339.602 145.5,337.5 Z"/></g>
<g><path style="opacity:1" fill="#abd056" d="M 268.5,345.5 C 271.226,345.264 273.559,346.097 275.5,348C 298.745,369.316 313.578,395.482 320,426.5C 321.149,466.342 305.982,473.842 274.5,449C 269.633,444.468 265.133,439.634 261,434.5C 261.714,409.714 258.214,385.547 250.5,362C 257.232,357.441 263.232,351.941 268.5,345.5 Z"/></g>
<g><path style="opacity:1" fill="#fefefd" d="M 271.5,355.5 C 273.308,355.491 274.975,355.991 276.5,357C 298.792,376.415 311.459,400.915 314.5,430.5C 315.263,439.056 312.596,446.222 306.5,452C 300.191,454.295 294.191,453.628 288.5,450C 278.43,444.597 270.263,437.097 264,427.5C 265.317,407.614 262.817,388.28 256.5,369.5C 256.529,367.971 257.196,366.804 258.5,366C 263.311,363.015 267.644,359.515 271.5,355.5 Z"/></g>
<g><path style="opacity:1" fill="#abd056" d="M 179.5,358.5 C 183.809,359.485 187.809,361.319 191.5,364C 195.754,365.314 200.087,366.147 204.5,366.5C 199.556,398.888 185.222,426.388 161.5,449C 155.03,454.126 148.03,458.459 140.5,462C 126.444,465.281 118.278,459.781 116,445.5C 115.333,439.167 115.333,432.833 116,426.5C 117.956,419.582 119.623,412.582 121,405.5C 121.785,403.714 122.951,402.214 124.5,401C 137.842,394 150.509,386 162.5,377C 168.741,371.263 174.408,365.097 179.5,358.5 Z"/></g>
<g><path style="opacity:1" fill="#abcf56" d="M 234.5,365.5 C 237.119,365.232 239.619,365.565 242,366.5C 252.176,395.178 253.176,424.178 245,453.5C 242.103,465.135 236.27,474.969 227.5,483C 215.855,488.677 206.688,485.843 200,474.5C 192.118,461.196 188.118,446.863 188,431.5C 194.581,424.015 199.914,415.681 204,406.5C 208.756,394.474 212.422,382.141 215,369.5C 221.639,368.39 228.139,367.057 234.5,365.5 Z"/></g>
<g><path style="opacity:1" fill="#fefefd" d="M 176.5,366.5 C 182.601,370.379 189.268,372.879 196.5,374C 195.721,387.245 191.888,399.745 185,411.5C 177.888,425.535 168.054,437.369 155.5,447C 148.954,451.96 141.621,454.294 133.5,454C 129.725,452.558 126.892,450.058 125,446.5C 123.394,441.803 122.561,436.969 122.5,432C 123.633,422.701 125.467,413.534 128,404.5C 139.591,397.957 150.758,390.79 161.5,383C 167.076,377.929 172.076,372.429 176.5,366.5 Z"/></g>
<g><path style="opacity:1" fill="#fefefd" d="M 231.5,375.5 C 233.792,375.244 235.959,375.577 238,376.5C 246.644,403.136 246.644,429.803 238,456.5C 235.29,464.77 230.123,470.937 222.5,475C 215.451,476.886 209.618,475.053 205,469.5C 197.162,457.656 193.162,444.656 193,430.5C 205.238,415.344 212.572,398.011 215,378.5C 220.661,377.887 226.161,376.887 231.5,375.5 Z"/></g>
<g><path style="opacity:0.994" fill="#fefefe" d="M 820.5,437.5 C 825.266,438.158 826.6,440.658 824.5,445C 819.502,446.33 817.336,444.496 818,439.5C 818.995,438.934 819.828,438.267 820.5,437.5 Z"/></g>
<g><path style="opacity:0.988" fill="#fefffe" d="M 834.5,437.5 C 839.318,438.623 840.318,441.123 837.5,445C 832.502,446.33 830.336,444.496 831,439.5C 832.302,438.915 833.469,438.249 834.5,437.5 Z"/></g>
<g><path style="opacity:0.997" fill="#fefefe" d="M 492.5,438.5 C 494.833,438.5 497.167,438.5 499.5,438.5C 497.015,448.427 495.182,458.427 494,468.5C 500.539,462.292 507.373,456.459 514.5,451C 517.882,450.176 521.216,450.343 524.5,451.5C 518.044,456.784 511.711,462.284 505.5,468C 510.289,474.412 514.956,480.912 519.5,487.5C 516.5,488.833 513.5,488.833 510.5,487.5C 507.151,482.14 503.318,477.14 499,472.5C 496.629,475.206 493.963,477.539 491,479.5C 490.163,482.365 489.33,485.198 488.5,488C 486.19,488.497 483.857,488.663 481.5,488.5C 484.858,471.738 488.525,455.071 492.5,438.5 Z"/></g>
<g><path style="opacity:0.995" fill="#fefefe" d="M 611.5,438.5 C 613.833,438.5 616.167,438.5 618.5,438.5C 616.206,448.466 614.373,458.466 613,468.5C 619.539,462.292 626.373,456.459 633.5,451C 636.882,450.176 640.216,450.343 643.5,451.5C 637.044,456.784 630.711,462.284 624.5,468C 629.748,474.082 634.415,480.582 638.5,487.5C 635.5,488.833 632.5,488.833 629.5,487.5C 626,482.5 622.5,477.5 619,472.5C 616,474.833 613,477.167 610,479.5C 609.163,482.365 608.33,485.198 607.5,488C 605.19,488.497 602.857,488.663 600.5,488.5C 603.858,471.738 607.525,455.071 611.5,438.5 Z"/></g>
<g><path style="opacity:0.998" fill="#fefefe" d="M 780.5,438.5 C 782.833,438.5 785.167,438.5 787.5,438.5C 784.039,455.14 780.705,471.806 777.5,488.5C 775.167,488.5 772.833,488.5 770.5,488.5C 770.719,487.325 770.386,486.325 769.5,485.5C 761.975,489.319 754.308,489.486 746.5,486C 737.76,476.648 737.26,466.815 745,456.5C 751.485,450.886 758.985,449.052 767.5,451C 770.902,452.4 773.736,454.567 776,457.5C 777.817,451.247 779.317,444.914 780.5,438.5 Z M 758.5,456.5 C 771.943,457.434 776.109,464.1 771,476.5C 765.442,482.924 758.942,484.091 751.5,480C 744.629,469.445 746.963,461.611 758.5,456.5 Z"/></g>
<g><path style="opacity:0.997" fill="#fefefe" d="M 554.5,450.5 C 561.877,449.689 568.877,450.856 575.5,454C 584.475,463.296 584.808,472.963 576.5,483C 566.6,489.549 556.266,490.216 545.5,485C 535.861,474.1 536.528,463.767 547.5,454C 549.925,452.787 552.259,451.621 554.5,450.5 Z M 558.5,456.5 C 572.514,456.987 577.014,463.653 572,476.5C 564,484.5 556,484.5 548,476.5C 544.905,466.356 548.405,459.69 558.5,456.5 Z"/></g>
<g><path style="opacity:0.996" fill="#fefefe" d="M 665.5,450.5 C 668.247,450.187 670.914,450.52 673.5,451.5C 671.323,459.384 669.656,467.384 668.5,475.5C 668.527,480.358 671.027,482.692 676,482.5C 681.035,481.981 685.035,479.648 688,475.5C 690.622,467.344 692.456,459.01 693.5,450.5C 696.167,450.5 698.833,450.5 701.5,450.5C 698.705,463.14 696.039,475.807 693.5,488.5C 691.167,488.5 688.833,488.5 686.5,488.5C 686.657,487.127 686.49,485.793 686,484.5C 682.521,487.863 678.354,489.197 673.5,488.5C 665.161,489.491 660.828,485.825 660.5,477.5C 662.298,468.512 663.964,459.512 665.5,450.5 Z"/></g>
<g><path style="opacity:0.997" fill="#fefefe" d="M 809.5,450.5 C 811.833,450.5 814.167,450.5 816.5,450.5C 815.156,459.052 813.49,467.552 811.5,476C 811.998,480.69 814.665,482.856 819.5,482.5C 824.242,482.213 828.075,480.213 831,476.5C 833.865,468.011 836.031,459.345 837.5,450.5C 839.833,450.5 842.167,450.5 844.5,450.5C 842.196,462.855 839.696,475.188 837,487.5C 834.619,488.435 832.119,488.768 829.5,488.5C 829.719,487.325 829.386,486.325 828.5,485.5C 822.836,488.387 816.836,489.221 810.5,488C 808.376,486.878 806.543,485.378 805,483.5C 804.744,472.276 806.244,461.276 809.5,450.5 Z"/></g>
<g><path style="opacity:0.996" fill="#fefefe" d="M 868.5,450.5 C 870.833,450.5 873.167,450.5 875.5,450.5C 875.343,451.873 875.51,453.207 876,454.5C 883.554,449.816 891.388,449.316 899.5,453C 902.18,456.423 903.013,460.256 902,464.5C 900.333,472.167 898.667,479.833 897,487.5C 894.619,488.435 892.119,488.768 889.5,488.5C 891.356,480.051 893.023,471.551 894.5,463C 894.074,458.319 891.408,456.152 886.5,456.5C 878.694,457.471 873.861,461.804 872,469.5C 870.637,475.814 869.47,482.147 868.5,488.5C 865.753,488.813 863.086,488.48 860.5,487.5C 863.642,475.266 866.309,462.933 868.5,450.5 Z"/></g>
<g><path style="opacity:0.995" fill="#fefefe" d="M 922.5,450.5 C 925.167,450.5 927.833,450.5 930.5,450.5C 932.527,459.607 935.027,468.607 938,477.5C 944.412,469.009 950.579,460.343 956.5,451.5C 959.5,450.167 962.5,450.167 965.5,451.5C 955.201,466.598 944.534,481.431 933.5,496C 929.068,498.588 924.401,499.421 919.5,498.5C 920.167,496.833 920.833,495.167 921.5,493.5C 926.748,492.561 930.414,489.727 932.5,485C 928.651,473.623 925.318,462.123 922.5,450.5 Z"/></g>
<g><path style="opacity:0.996" fill="#fefefe" d="M 993.5,450.5 C 1002.13,448.693 1009.29,451.026 1015,457.5C 1016.13,455.661 1016.96,453.661 1017.5,451.5C 1019.74,450.526 1022.08,450.192 1024.5,450.5C 1021.71,463.139 1019.04,475.806 1016.5,488.5C 1014.17,488.5 1011.83,488.5 1009.5,488.5C 1009.65,487.448 1009.48,486.448 1009,485.5C 1002.08,488.853 994.913,489.353 987.5,487C 978.882,480.268 976.715,471.768 981,461.5C 983.708,456.079 987.875,452.413 993.5,450.5 Z M 997.5,456.5 C 1009.36,456.231 1014.19,461.898 1012,473.5C 1006.91,482.458 999.745,484.624 990.5,480C 983.697,469.44 986.031,461.607 997.5,456.5 Z"/></g>
<g><path style="opacity:0.996" fill="#fefefe" d="M 1048.5,450.5 C 1051.25,450.187 1053.91,450.52 1056.5,451.5C 1055.67,452.451 1055.51,453.451 1056,454.5C 1061.96,450.702 1068.46,449.535 1075.5,451C 1080.64,452.531 1082.97,456.031 1082.5,461.5C 1080.7,470.488 1079.04,479.488 1077.5,488.5C 1074.83,488.5 1072.17,488.5 1069.5,488.5C 1071.32,480.209 1072.99,471.875 1074.5,463.5C 1074.47,458.642 1071.97,456.308 1067,456.5C 1062.11,456.728 1058.11,458.728 1055,462.5C 1051.88,470.913 1049.72,479.58 1048.5,488.5C 1045.75,488.813 1043.09,488.48 1040.5,487.5C 1043.68,475.27 1046.35,462.937 1048.5,450.5 Z"/></g>
<g><path style="opacity:0.996" fill="#fefffe" d="M 1108.5,450.5 C 1110.83,450.5 1113.17,450.5 1115.5,450.5C 1113.17,463.167 1110.83,475.833 1108.5,488.5C 1105.83,488.5 1103.17,488.5 1100.5,488.5C 1103.17,475.833 1105.83,463.167 1108.5,450.5 Z"/></g>
<g><path style="opacity:0.997" fill="#fefefe" d="M 1138.5,450.5 C 1149.17,450.5 1159.83,450.5 1170.5,450.5C 1170.68,452.591 1170.35,454.591 1169.5,456.5C 1160.02,464.815 1150.68,473.315 1141.5,482C 1149.16,482.5 1156.83,482.666 1164.5,482.5C 1164.64,484.262 1164.31,485.929 1163.5,487.5C 1152.19,488.499 1140.85,488.832 1129.5,488.5C 1129.37,486.345 1129.87,484.345 1131,482.5C 1140.17,474 1149.33,465.5 1158.5,457C 1151.51,456.5 1144.51,456.334 1137.5,456.5C 1137.33,454.379 1137.66,452.379 1138.5,450.5 Z"/></g>
</svg>
